<svg id="Capa_1" data-name="Capa 1" xmlns="http://www.w3.org/2000/svg" viewBox="0 0 466.99 58.82"><defs><style>.cls-1{fill:#fe4918;}.cls-2{fill:#026a37;}.cls-3{fill:#fe681e;}.cls-4{fill:#fe6a21;}.cls-5{fill:#fe671c;}.cls-6{fill:#046b39;}</style></defs><rect class="cls-1" width="18" height="58.82"/><path class="cls-2" d="M87.91,67.3a187.48,187.48,0,0,1-29.29-4C52.73,62,46.91,60.41,41.91,56.79a14.82,14.82,0,0,1-4.8-5.43,6.73,6.73,0,0,1,0-5.37c.78-2.24,2-4.32,2-6.79,0-.81.47-.69,1-.59a176.89,176.89,0,0,1,23.37,5.8A67.36,67.36,0,0,1,74,48.81c3.08,1.63,6.26,3.25,8.79,5.62,3.72,3.49,7.41,7.12,9.2,12.14.25.71,0,.71-.44.72C90.33,67.32,89.12,67.3,87.91,67.3Z" transform="translate(-5 -9.18)"/><path class="cls-2" d="M96.34,66.91c.65-.56,1.34-1.11,2-1.72a61.31,61.31,0,0,1,27.63-15,130.92,130.92,0,0,1,22.3-4c1.16-.09,2.33-.08,3.5-.09s1.69.45,1.31,1.62c-.76,2.36-1.37,4.76-3.07,6.72-2.71,3.12-6.32,4.7-10.07,6.1-10.84,4-22.11,5.82-33.6,6.46-3,.17-6,.26-9,.37A.9.9,0,0,1,96.34,66.91Z" transform="translate(-5 -9.18)"/><path class="cls-3" d="M193.93,59.06c-7.4-.23-13.81-1.07-19.81-3.87a15.82,15.82,0,0,1-7.43-6.38c-2.24-4-1.47-7.46,1.73-11a21.72,21.72,0,0,1,8.92-5.67c7-2.56,14.33-3.09,21.73-2.67a54.76,54.76,0,0,1,11.65,1.94,7.1,7.1,0,0,0,3.21.07c.81-.15,1.23.11,1.14,1-.14,1.49.63,2.84.58,4.33,0,.71,0,1.14-.94.69a6.48,6.48,0,0,1-2-1.08c-3.09-3.16-7-4.42-11.25-4.78-4-.33-8-.26-11.76,1.42a11.78,11.78,0,0,0-7.09,8.18c-1.94,7.76,3.06,13.31,9.76,14.5a35.38,35.38,0,0,0,16.24-.52c2.36-.68,4.22-2.16,6.2-3.47.38-.25.81-.64,1.16-.36s.11.84,0,1.27c-.05.25-.34.5-.31.71.26,2-1.18,2.28-2.56,2.72A60.26,60.26,0,0,1,193.93,59.06Z" transform="translate(-5 -9.18)"/><path class="cls-2" d="M41.52,34.2c4-5.64,9.5-9,15.92-11.1a2.19,2.19,0,0,1,1.66.13,71.48,71.48,0,0,1,15.42,8.68A40.73,40.73,0,0,1,83.15,40,45.56,45.56,0,0,1,89.8,51.61c.88,2.43,1.65,4.9,2.49,7.34a4.89,4.89,0,0,1,.06,2.68,20,20,0,0,1-2.58-3.72A72.59,72.59,0,0,0,84.28,51c-2.25-2.6-5.13-4.32-8-6.16-5.5-3.6-11.71-5.34-17.91-7.17a96.14,96.14,0,0,0-15.11-3A5,5,0,0,1,41.52,34.2Z" transform="translate(-5 -9.18)"/><path class="cls-2" d="M94.11,15.53c5.07.05,9.38,1,13.06,3.92a6.9,6.9,0,0,1,3,5c.21,2.94-1.39,4.88-3.62,6.44-4.25,3-9.06,3.77-14.12,3.41a26,26,0,0,1-6-1.22A13.09,13.09,0,0,1,81,29.65c-3.17-3.32-2.91-6.79.72-10S90.45,15.57,94.11,15.53Z" transform="translate(-5 -9.18)"/><path class="cls-3" d="M320.14,59a34.61,34.61,0,0,1-16.07-3,11.17,11.17,0,0,1-5.67-5,5.16,5.16,0,0,1,.93-6,16.21,16.21,0,0,1,8-4.83c9.72-2.76,19.27-2.4,28.56,1.79a11.65,11.65,0,0,1,4.14,3.38c2,2.43,1.72,5.51-.63,7.89A15.81,15.81,0,0,1,333,57,45.7,45.7,0,0,1,320.14,59ZM309.48,48.26a9.4,9.4,0,0,0,5.92,8.61,16.47,16.47,0,0,0,7.41.72c4.57-.65,8.49-3.85,7.43-9.66a7.13,7.13,0,0,0-2.14-4.08c-3.35-3-7.4-3.74-11.79-3.35S309.5,44.33,309.48,48.26Z" transform="translate(-5 -9.18)"/><path class="cls-4" d="M345.38,58c2.57-1.79,3.12-4.18,2.53-7.37A19,19,0,0,1,348,44c.15-.93-.36-1.68-.36-2.55,0-.5-.39-.55-.75-.56-.76,0-1.53,0-2.29,0-.4,0-1,.25-1.13-.39a1.21,1.21,0,0,1,.72-1.42,10.28,10.28,0,0,1,3-.71c.64-.11,1-.28.92-1-.29-2.76,1.37-4.41,3.47-5.71A25.15,25.15,0,0,1,361,28.43a36.74,36.74,0,0,1,14.17.46c.42.1,1.07.07,1.16.49s-.6.64-.95.93c-.84.7-1.84,1.17-2.68,1.91a2.13,2.13,0,0,1-3.17,0c-2-1.79-4.44-2.17-7-2.21-3.38-.05-4,1.24-4.51,4.13-.19,1.08.07,2.15-.41,3.26-.4.92.57,1.09,1.34,1.09h9.16c.54,0,1.09,0,1.62,0s1.26-.27,1.38.4-.5,1.21-1.11,1.45a5.15,5.15,0,0,1-1.72.23c-2.78,0-5.57,0-8.35,0a2,2,0,0,0-2,2c0,3.77.09,7.55,0,11.32a3.32,3.32,0,0,0,2,3.47c.21.1.51.15.59.53Z" transform="translate(-5 -9.18)"/><path class="cls-5" d="M409.89,40.58c3.19,0,6.38,0,9.57,0,.88,0,.9.41.9,1.06,0,3.62,0,7.25,0,10.87,0,2,.67,3,2.66,3.71a15,15,0,0,0,7.2.38c5.25-.62,4.16-.77,4.25-4.75.05-2.55,0-5.1,0-7.65,0-2.34,0-2.34-2-3.6.21-.46.62-.23.93-.24,2.6-.05,5.21-.05,7.81-.12,2.16-.06,2.34,0,2.43,2.2s.06,4.48.09,6.71c0,1.43.08,2.87,0,4.29a3.12,3.12,0,0,0,1.89,3.3,4.1,4.1,0,0,1,.82.63l-9.27,1.22c-.4,0-.79.14-1.19.22-.71.13-1.2.23-1.29-.86-.12-1.34-1.23-1.07-2.06-.73A25.42,25.42,0,0,1,424.44,59a22,22,0,0,1-9.28-1c-2.62-1-3.61-2.38-3.61-5.16,0-2.5,0-5,0-7.51,0-1.72.52-3.64-2-4.43Z" transform="translate(-5 -9.18)"/><path class="cls-6" d="M96.3,62.83c.43-2.72,2.44-4.41,4.13-6.3,2.59-2.89,5.83-5,8.94-7.23a93.87,93.87,0,0,1,17.66-10,74.27,74.27,0,0,1,18.28-5.37,2.76,2.76,0,0,1,2.79,1,34.19,34.19,0,0,1,4.15,5.2c.69,1.26.47,1.8-1,1.94-4.68.45-9.37.9-14,1.79A93.13,93.13,0,0,0,119.6,49a90.87,90.87,0,0,0-17.45,9.66c-1.77,1.22-3.43,2.62-5.1,4A.82.82,0,0,1,96.3,62.83Z" transform="translate(-5 -9.18)"/><path class="cls-6" d="M142.78,29.5c-3.43.23-6.18,1.54-9,2.66a125.69,125.69,0,0,0-22.48,11.5,54.34,54.34,0,0,0-9.47,8c-1.71,1.8-3.25,3.75-4.79,5.69-.27.34-.55.54-.83.42s0-.45,0-.7c1.11-8,6.51-13.08,12-18.17a126.12,126.12,0,0,1,10-8c3.49-2.64,7.27-4.79,11-7.1a4.16,4.16,0,0,1,4.51-.11A78.8,78.8,0,0,1,142.78,29.5Z" transform="translate(-5 -9.18)"/><path class="cls-4" d="M448.31,41.14a9.92,9.92,0,0,1,3.15-1.91c2.65-1.24,5.32-2.45,8-3.56,1.45-.6,1.49-.49,1.51,1.09C461,39,461,39,463.22,39q3.7,0,7.41,0c.31,0,.78-.22.88.31a1,1,0,0,1-.47,1.14,3.74,3.74,0,0,1-1.93.45h-5.79c-1.79,0-1.86.08-1.87,1.78,0,3.57,0,7.15,0,10.72,0,2,.4,2.6,2.45,2.92a11,11,0,0,0,6.08-.53c.62-.27,1.67-.89,2-.16s-.91,1-1.53,1.34c-3.69,1.94-7.69,2.21-11.76,2a12,12,0,0,1-4.18-.88,4.24,4.24,0,0,1-2.8-4.19c0-3.75-.05-7.51,0-11.26,0-1.13-.21-1.69-1.46-1.5A15.08,15.08,0,0,1,448.31,41.14Z" transform="translate(-5 -9.18)"/><path class="cls-4" d="M287.22,58H272.43c0-.13,0-.26,0-.27,1.69-.83,2.16-2.17,2.09-4-.14-3.26,0-6.53,0-9.79,0-2.27-.36-2.66-2.52-3.22A3.09,3.09,0,0,1,270.3,40c4.37-.53,8.61-1.34,12.86-2.12.72-.13.69.24.73.73.19,2.8.31,2.92,3,1.75a20.55,20.55,0,0,1,13.18-1.53c-1.65,1-2.89,2.49-4.63,3.29a3.71,3.71,0,0,1-2.62-.17,10.42,10.42,0,0,0-7.06.74c-1.39.6-1.93,1.89-1.15,4a9,9,0,0,1,0,6C283.47,55.92,285.18,56.77,287.22,58Z" transform="translate(-5 -9.18)"/><path class="cls-5" d="M265.52,55.51c-1.84,1.84-4.07,2.42-6.33,2.92a22.5,22.5,0,0,1-10.13.11A5,5,0,0,1,245.37,56a3.38,3.38,0,0,1-.33-1.64c0-4,0-8,0-11.94,0-1-.22-1.4-1.25-1.3a20.07,20.07,0,0,1-2.05,0c-.09-.68.36-.76.63-.9.87-.45,1.76-.84,2.65-1.24a29,29,0,0,0,5.55-2.54,6.62,6.62,0,0,1,1.69-.76c1.69-.6,1.69-.59,1.71,1.12C254,39,254,39,256.22,39h8.34c.18,1.56-.78,1.87-1.93,1.88-2.11,0-4.22,0-6.33,0-1.66,0-1.83.2-1.83,1.83,0,3.62.05,7.25,0,10.87a2.3,2.3,0,0,0,1.95,2.56,10.83,10.83,0,0,0,6.1-.19A4.47,4.47,0,0,1,265.52,55.51Z" transform="translate(-5 -9.18)"/><path class="cls-3" d="M377.6,58c1.83-1,2.1-2.57,2-4.44-.12-3.17-.12-6.35,0-9.51a2.75,2.75,0,0,0-2-3c-.6-.24-1.18-.5-2.14-.9,2.55-.37,4.71-.65,6.86-1,1.68-.27,3.35-.6,5-.93C388.87,38,389,38,389,39.53c0,2.07,0,2,2,1.25A25.46,25.46,0,0,1,402,38.55c.31,0,.63,0,.94,0,.63.07,1.47.13,1.64.7.22.76-.76.79-1.21,1.14s-.82.51-1.2.8a4.25,4.25,0,0,1-4.27.82c-2.31-.73-4.7-.23-7,.44a1.87,1.87,0,0,0-1.44,2.07c.06,3,.07,6.08,0,9.12-.05,1.87,0,3.57,2.19,4.32Z" transform="translate(-5 -9.18)"/><path class="cls-3" d="M222.22,39.91c2.92-.36,5.84-.72,8.75-1.1.88-.12,1.76-.33,2.64-.48,1.23-.22,1.67.19,1.41,2.16a40.76,40.76,0,0,0-.15,9.17c.74,8-1.14,5.69,2.77,8.34h-14c-.08,0,0-.19.08-.26,1.51-1.33,1.44-3.07,1.41-4.86-.06-3-.13-6.08,0-9.12a3,3,0,0,0-2.29-3.36c-.21-.08-.41-.18-.61-.28C222.25,40.11,222.25,40,222.22,39.91Z" transform="translate(-5 -9.18)"/><path class="cls-4" d="M229.19,34.7a10.2,10.2,0,0,1-4.52-.85,1.21,1.21,0,0,1-.3-2c1.27-1.33,7.22-1.8,8.67-.48,1.14,1,1.22,1.4,0,2.38S230.37,34.59,229.19,34.7Z" transform="translate(-5 -9.18)"/></svg>