<svg id="Capa_1" data-name="Capa 1" xmlns="http://www.w3.org/2000/svg" viewBox="0 0 472.84 58.82"><defs><style>.cls-1{fill:#fe4918;}.cls-2{fill:#fefdfd;}.cls-3{fill:#026a37;}.cls-4{fill:#fe681d;}.cls-5{fill:#036a38;}.cls-6{fill:#fe6a20;}.cls-7{fill:#fe671c;}.cls-8{fill:#046b39;}.cls-9{fill:#fe6b22;}.cls-10{fill:#fe681e;}.cls-11{fill:#fe691f;}.cls-12{fill:#fefdfc;}</style></defs><rect class="cls-1" width="18" height="58.82"/><path class="cls-2" d="M92.92,55c-1.1.38-.45,1.21-.6,1.84-.06.27-.09.7.33.75s.63-.33.71-.69c.67-1.11,1.57-2.08,2.32-3.13a60,60,0,0,1,11.5-11.86,104.54,104.54,0,0,1,18.24-11.07c4.33-2.18,8.65-4.38,13.47-5.63,1.3-.34.63-1,.2-1.28a78,78,0,0,0-8.48-5.77,3.34,3.34,0,0,0-3.63.11,125.16,125.16,0,0,0-18.22,13.81,71.69,71.69,0,0,0-10.13,10.8C95.87,46.61,93.39,50.43,92.92,55Z" transform="translate(-5 -9.18)"/><path class="cls-2" d="M84.51,68c.86,0,1.72,0,2.58,0,1.37.09,1.36-.61,1-1.41a34.81,34.81,0,0,0-5-8.57A45.14,45.14,0,0,0,68.48,46.23c-10.3-5.5-21.71-8.38-33.29-10.82-1-.21-1.11.11-1.07.79.12,1.9-.74,3.65-1.26,5.42-.68,2.35-1.49,4.56-1,7.09A11.31,11.31,0,0,0,35.72,55,34.66,34.66,0,0,0,49.2,62.06C60.65,65.51,72.5,67.07,84.51,68Z" transform="translate(-5 -9.18)"/><path class="cls-2" d="M97.16,67.94q9-.41,17.8-1.67a88.81,88.81,0,0,0,26-7.67c3.34-1.6,6.22-3.67,7.79-7a46.21,46.21,0,0,0,1.74-4.9c.92-2.68.82-2.94-2.31-2.91-.34,0-.69,0-1,0a100.74,100.74,0,0,0-16.71,2.72c-7.81,1.88-15.36,4.32-22.22,8.19a59.74,59.74,0,0,0-9,6.61c-2,1.71-3.84,3.64-5.71,5.5-.24.24-.58.58-.37.94s.61.16.93.16C95.1,68,96.13,67.94,97.16,67.94Z" transform="translate(-5 -9.18)"/><path class="cls-2" d="M215.59,49.63a7.54,7.54,0,0,0-2.74,1.63,14.22,14.22,0,0,1-4.4,2.73,30.53,30.53,0,0,1-19.78-.07,11.51,11.51,0,0,1-6.47-5.74C180.8,45.6,180.82,42.8,181,40a13.18,13.18,0,0,1,10.13-12,25.69,25.69,0,0,1,12.08-.21c3.26.69,6.16,1.9,8.2,4.44A9.33,9.33,0,0,0,213.9,34c.79.48,1.26.37,1.17-.6-.15-1.62-.31-3.24-.34-4.86,0-1.13-.6-1.43-1.73-1.22a6,6,0,0,1-2.89-.1,56.06,56.06,0,0,0-22.54-2c-6.5.68-12.63,2.33-17.65,6.2-4.79,3.68-7.4,8.09-5.58,14,1.36,4.36,4.7,7.1,8.89,9.21,5.29,2.65,11.1,3.62,17.09,4a55.45,55.45,0,0,0,23.41-3.83c.47-.19,1.31-.26,1.27-.88C214.89,52.41,216,51.21,215.59,49.63Z" transform="translate(-5 -9.18)"/><path class="cls-2" d="M88.56,61.25A12.41,12.41,0,0,0,88,56.39c-1.1-3.15-1.85-6.37-3.21-9.47a40.6,40.6,0,0,0-3.7-7.4A53.88,53.88,0,0,0,70.18,27.66a81.53,81.53,0,0,0-15.29-9.59,2.55,2.55,0,0,0-2.22-.2C46.52,20.33,41.08,23.54,37.77,29c-1,1.65-1.06,1.67,1,2a117.55,117.55,0,0,1,16.87,3.87A59.79,59.79,0,0,1,76.31,45.33c4.74,3.87,8,8.79,10.83,13.9A4.61,4.61,0,0,0,88.56,61.25Z" transform="translate(-5 -9.18)"/><path class="cls-2" d="M90.77,9.18c-6,.2-11.41,1.75-14.77,6.72a6.59,6.59,0,0,0-.38,7.25c2.16,4.08,6.06,6.06,10.8,7,6.22,1.28,15.72-.09,19.7-6.84,1.24-2.09.6-6.68-1.17-8.61C101.31,10.76,96.45,9.34,90.77,9.18Z" transform="translate(-5 -9.18)"/><path class="cls-2" d="M320.57,58.62c6.19-.26,12.12-.84,17.45-3.69,3.62-1.92,6-4.42,5.73-8.44-.24-3.47-2.56-5.61-5.61-7.32-6.36-3.56-13.41-4.4-20.74-3.81a27.78,27.78,0,0,0-12.95,4c-3,1.94-5.47,4.32-5.24,8,.17,2.79,2,4.77,4.25,6.45C308.46,57.46,314.46,58.4,320.57,58.62Z" transform="translate(-5 -9.18)"/><path class="cls-2" d="M363.38,57.92c-2.23-1.34-2.64-3.17-2.56-5.39.14-4.15.12-8.32,0-12.48,0-1.48.73-1.87,2.09-1.89,2.76,0,5.52,0,8.27,0a5.19,5.19,0,0,0,2.18-.32,1.39,1.39,0,0,0,.93-1.62c-.15-.74-.94-.42-1.44-.43q-5.34,0-10.68,0c-1,0-1.67-.17-1.47-1.15.29-1.47.13-2.94.3-4.4.31-2.66,1.57-4.05,4-4.07,2.82,0,5.58.24,7.6,2.39.62.66,1.49,1.38,2.62.57,1.35-1,2.63-2,4-2.92,1.18-.75.66-1.05-.29-1.28-7.7-1.85-15.2-1.56-22.35,1.8-2.72,1.29-5.11,2.93-5.56,5.93-.13.9.39,2-.27,2.66s-1.93.43-2.92.67-1.94.77-1.7,1.9,1.28.43,2,.55a13.14,13.14,0,0,0,1.54.05c.45,0,.73.21.8.65a17.23,17.23,0,0,1,.43,2.21c.07,4,.08,8,.09,12a6.39,6.39,0,0,1-.38,1.55c-.37,1.33-1.74,1.92-2.55,3Z" transform="translate(-5 -9.18)"/><path class="cls-2" d="M437.33,37.18l-.16.42c1.25.75,2.3,1.5,2.27,3-.1,4.11-.07,8.22,0,12.33,0,1.41-.71,2.09-2.2,2.43a23.91,23.91,0,0,1-7.68.47c-2.6-.25-4.88-1.68-4.78-4.69.14-4.11,0-8.22.06-12.33,0-1-.33-1.29-1.44-1.26-2.3.07-4.6,0-6.9,0a4.86,4.86,0,0,0-2.46.24c1.93,1.65,1.93,1.65,1.93,4,0,3.55,0,7.1,0,10.65a4.18,4.18,0,0,0,.55,2.6c1.51,2.13,3.85,2.91,6.41,3.23A26.58,26.58,0,0,0,437,56.64c1.94-.84,2.39-.62,2.8,1.14.14.59.47.65.94.54,3.53-.81,7.16-1.11,10.83-1.6-2.62-2.46-2.61-2.46-2.68-5.86-.09-4.21.1-8.42-.23-12.63-.07-.87-.4-1.09-1.35-1.08C444,37.21,440.66,37.18,437.33,37.18Z" transform="translate(-5 -9.18)"/><path class="cls-2" d="M92.77,63.05a9.06,9.06,0,0,0,1.1-.7,88.25,88.25,0,0,1,16.63-12,85,85,0,0,1,18.72-7.67,108.85,108.85,0,0,1,19.85-3.4c1.14-.11,1.34-.55,1.19-1.38a4.17,4.17,0,0,0-.68-1.82c-.84-1.1-1.63-2.21-2.42-3.33-2.09-3-2.49-3.12-6.51-2.28-10.07,2.11-18.92,6.4-27.19,11.74a93,93,0,0,0-14,10.9C96.54,55.89,93.34,58.72,92.77,63.05Z" transform="translate(-5 -9.18)"/><path class="cls-2" d="M453.51,38.17c.74,0,1.14.08,1.53.09,2.47.05,2.22-.32,2.22,2.09,0,4.26.05,8.52,0,12.78,0,2.81,1.72,4.43,4.22,4.93,5.52,1.1,10.78.57,15.56-2.35.47-.28,1-.64.75-1-.34-.63-1.05-.21-1.48,0a12,12,0,0,1-5.64,1c-2.74-.21-3.66-1-3.67-3.38,0-4.21.06-8.42,0-12.63,0-1.31.64-1.68,1.94-1.67,1.9,0,3.79,0,5.69,0a4.56,4.56,0,0,0,2.27-.54,1.06,1.06,0,0,0,.57-1.3c-.15-.58-.75-.32-1.15-.32-2.35,0-4.71,0-7.06,0-2.79,0-2.79,0-2.82-2.52,0-1.81-.25-2-2.08-1.08-2.42,1.18-4.75,2.53-7.17,3.7A13,13,0,0,0,453.51,38.17Z" transform="translate(-5 -9.18)"/><path class="cls-2" d="M284.76,34.89c-4.6,1-9,1.81-13.7,2.55a5.2,5.2,0,0,0,1.32.7c2.26.4,2.81,1.72,2.77,3.55-.08,3.5,0,7,0,10.5,0,2,.56,4.25-2.43,5.64H288.3c-1.5-1.25-3.16-2.1-3.11-4.06.08-3.55.05-7.1,0-10.65a2.63,2.63,0,0,1,1.54-2.5,9.16,9.16,0,0,1,7.35-1c1.3.42,2.7.69,3.69-.28,1.18-1.16,2.45-2.23,3.87-3.4-3.9-.49-7.56-.91-11.05.84a33.39,33.39,0,0,1-3.69,1.55c-1.39.51-2,.11-2.13-1.21C284.73,36.44,284.76,35.74,284.76,34.89Z" transform="translate(-5 -9.18)"/><path class="cls-2" d="M241.49,37.92a1.88,1.88,0,0,0,1.53.32c1.64-.21,2.13.31,2.09,1.8-.13,4.31,0,8.62-.07,12.93-.06,2.6,1.7,4.41,4.28,5.07a21,21,0,0,0,9,.14c2.88-.53,5.74-1.2,7.61-3.58-1.1-.48-1.93.14-2.76.46a10.38,10.38,0,0,1-6,.33c-1.66-.36-2.45-1.26-2.44-2.79,0-4.31.06-8.62,0-12.93,0-1.3.62-1.71,1.92-1.7h6a4.36,4.36,0,0,0,2-.41c.68-.33.56-.85.54-1.32,0-.65-.67-.42-1.06-.42-2.18,0-4.36,0-6.55,0-3.05,0-3.05,0-3.1-2.75,0-1.6-.18-1.72-1.81-1-2.45,1.12-4.62,2.69-7.19,3.64A24.18,24.18,0,0,0,241.49,37.92Z" transform="translate(-5 -9.18)"/><path class="cls-2" d="M395.75,57.9c-1.5-1-2.94-1.54-2.92-3.21.06-4.16,0-8.32,0-12.48a1.33,1.33,0,0,1,.77-1.39,10.55,10.55,0,0,1,8.06-1,4.23,4.23,0,0,0,4.63-1,11.39,11.39,0,0,1,1.39-1.1c.43-.28,1.21-.39,1.05-1s-.95-.64-1.53-.79a6.81,6.81,0,0,0-1.36-.11,22.2,22.2,0,0,0-10.5,2.34c-2.27,1-2.82,1.4-2.73-1.34.06-1.56-.21-1.72-1.88-1.29a63.57,63.57,0,0,1-6.71,1.3,27.89,27.89,0,0,0-4.9.87,9.39,9.39,0,0,0,1.14.63,3.72,3.72,0,0,1,2.79,4.12c-.17,3.4-.13,6.8,0,10.2.06,1.93-.09,3.67-1.95,5,0,0,.05.18.08.3Z" transform="translate(-5 -9.18)"/><path class="cls-2" d="M237.5,58c-3-.89-2.42-3.11-2.43-5.07,0-5.28-.06-10.56,0-15.83,0-1.49-.58-1.69-2-1.4-2.06.41-4.15.71-6.24,1-1.7.26-3.41.45-5.11.68l-.4.38c3.75.45,3.54,2.68,3.49,4.93-.08,3,0,6,0,9,0,2.17.62,4.49-1.88,6.31Z" transform="translate(-5 -9.18)"/><path class="cls-2" d="M228.31,30.93a9.15,9.15,0,0,0,4.23-.82c1.6-.78,1.84-1.62.77-2.69-1.77-1.77-7.93-1.54-9.4.42a1.24,1.24,0,0,0,.34,2A7.45,7.45,0,0,0,228.31,30.93Z" transform="translate(-5 -9.18)"/><path class="cls-3" d="M84.51,68c-12-.91-23.86-2.47-35.31-5.92A34.66,34.66,0,0,1,35.72,55a11.31,11.31,0,0,1-3.86-6.24c-.49-2.53.32-4.74,1-7.09.52-1.77,1.38-3.52,1.26-5.42,0-.68.09-1,1.07-.79,11.58,2.44,23,5.32,33.29,10.82A45.14,45.14,0,0,1,83.16,58a34.81,34.81,0,0,1,5,8.57c.32.8.33,1.5-1,1.41C86.23,67.94,85.37,68,84.51,68Z" transform="translate(-5 -9.18)"/><path class="cls-3" d="M97.16,67.94c-1,0-2.06,0-3.1,0-.32,0-.75.16-.93-.16s.13-.7.37-.94c1.87-1.86,3.67-3.79,5.71-5.5a59.74,59.74,0,0,1,9-6.61c6.86-3.87,14.41-6.31,22.22-8.19a100.74,100.74,0,0,1,16.71-2.72c.34,0,.69,0,1,0,3.13,0,3.23.23,2.31,2.91a46.21,46.21,0,0,1-1.74,4.9c-1.57,3.35-4.45,5.42-7.79,7A88.81,88.81,0,0,1,115,66.27Q106.13,67.55,97.16,67.94Z" transform="translate(-5 -9.18)"/><path class="cls-4" d="M215.59,49.63c.42,1.58-.7,2.78-.59,4.16,0,.62-.8.69-1.27.88a55.45,55.45,0,0,1-23.41,3.83c-6-.33-11.8-1.3-17.09-4-4.19-2.11-7.53-4.85-8.89-9.21-1.82-5.87.79-10.28,5.58-14,5-3.87,11.15-5.52,17.65-6.2a56.06,56.06,0,0,1,22.54,2,6,6,0,0,0,2.89.1c1.13-.21,1.71.09,1.73,1.22,0,1.62.19,3.24.34,4.86.09,1-.38,1.08-1.17.6a9.33,9.33,0,0,1-2.5-1.73c-2-2.54-4.94-3.75-8.2-4.44a25.69,25.69,0,0,0-12.08.21A13.18,13.18,0,0,0,181,40c-.17,2.77-.19,5.57,1.21,8.15a11.51,11.51,0,0,0,6.47,5.74,30.53,30.53,0,0,0,19.78.07,14.22,14.22,0,0,0,4.4-2.73A7.54,7.54,0,0,1,215.59,49.63Z" transform="translate(-5 -9.18)"/><path class="cls-5" d="M88.56,61.25a4.61,4.61,0,0,1-1.42-2c-2.82-5.11-6.09-10-10.83-13.9A59.79,59.79,0,0,0,55.66,34.86,117.55,117.55,0,0,0,38.79,31c-2.08-.32-2-.34-1-2,3.31-5.46,8.75-8.67,14.9-11.13a2.55,2.55,0,0,1,2.22.2,81.53,81.53,0,0,1,15.29,9.59A53.88,53.88,0,0,1,81.1,39.52a40.6,40.6,0,0,1,3.7,7.4c1.36,3.1,2.11,6.32,3.21,9.47A12.41,12.41,0,0,1,88.56,61.25Z" transform="translate(-5 -9.18)"/><path class="cls-3" d="M90.77,9.18c5.68.16,10.54,1.58,14.18,5.55,1.77,1.93,2.41,6.52,1.17,8.61-4,6.75-13.48,8.12-19.7,6.84-4.74-1-8.64-2.95-10.8-7A6.59,6.59,0,0,1,76,15.9C79.36,10.93,84.76,9.38,90.77,9.18Z" transform="translate(-5 -9.18)"/><path class="cls-4" d="M320.57,58.62c-6.11-.22-12.11-1.16-17.11-4.85-2.27-1.68-4.08-3.66-4.25-6.45-.23-3.67,2.22-6,5.24-8a27.78,27.78,0,0,1,12.95-4c7.33-.59,14.38.25,20.74,3.81,3.05,1.71,5.37,3.85,5.61,7.32.27,4-2.11,6.52-5.73,8.44C332.69,57.78,326.76,58.36,320.57,58.62Zm-9.3-11.89c-.23,5.48,4,9.77,9.84,10.32,6.13.57,10.16-2.19,11.45-6.64,1.15-4-.27-7.59-3.77-10.44-3.32-2.68-9.5-3.46-13.45-1.49C311.92,40.19,311.29,43.17,311.27,46.73Z" transform="translate(-5 -9.18)"/><path class="cls-6" d="M363.38,57.92H348c.81-1.1,2.18-1.69,2.55-3a6.39,6.39,0,0,0,.38-1.55c0-4,0-8-.09-12a17.23,17.23,0,0,0-.43-2.21c-.07-.44-.35-.62-.8-.65a13.14,13.14,0,0,1-1.54-.05c-.68-.12-1.73.57-2-.55s.61-1.64,1.7-1.9,2.28,0,2.92-.67.14-1.76.27-2.66c.45-3,2.84-4.64,5.56-5.93,7.15-3.36,14.65-3.65,22.35-1.8.95.23,1.47.53.29,1.28-1.41.89-2.69,2-4,2.92-1.13.81-2,.09-2.62-.57-2-2.15-4.78-2.41-7.6-2.39-2.4,0-3.66,1.41-4,4.07-.17,1.46,0,2.93-.3,4.4-.2,1,.51,1.16,1.47,1.15q5.34,0,10.68,0c.5,0,1.29-.31,1.44.43a1.39,1.39,0,0,1-.93,1.62,5.19,5.19,0,0,1-2.18.32c-2.75,0-5.51,0-8.27,0-1.36,0-2.13.41-2.09,1.89.13,4.16.15,8.33,0,12.48C360.74,54.75,361.15,56.58,363.38,57.92Z" transform="translate(-5 -9.18)"/><path class="cls-7" d="M437.33,37.18c3.33,0,6.66,0,10,0,.95,0,1.28.21,1.35,1.08.33,4.21.14,8.42.23,12.63.07,3.4.06,3.4,2.68,5.86-3.67.49-7.3.79-10.83,1.6-.47.11-.8,0-.94-.54-.41-1.76-.86-2-2.8-1.14a26.58,26.58,0,0,1-14.07,1.68c-2.56-.32-4.9-1.1-6.41-3.23a4.18,4.18,0,0,1-.55-2.6c0-3.55,0-7.1,0-10.65,0-2.32,0-2.32-1.93-4a4.86,4.86,0,0,1,2.46-.24c2.3,0,4.6,0,6.9,0,1.11,0,1.46.25,1.44,1.26-.06,4.11.08,8.22-.06,12.33-.1,3,2.18,4.44,4.78,4.69a23.91,23.91,0,0,0,7.68-.47c1.49-.34,2.22-1,2.2-2.43-.05-4.11-.08-8.22,0-12.33,0-1.55-1-2.3-2.27-3Z" transform="translate(-5 -9.18)"/><path class="cls-8" d="M92.77,63.05c.57-4.33,3.77-7.16,6.68-9.95a93,93,0,0,1,14-10.9c8.27-5.34,17.12-9.63,27.19-11.74,4-.84,4.42-.7,6.51,2.28.79,1.12,1.58,2.23,2.42,3.33a4.17,4.17,0,0,1,.68,1.82c.15.83,0,1.27-1.19,1.38a108.85,108.85,0,0,0-19.85,3.4,85,85,0,0,0-18.72,7.67,88.25,88.25,0,0,0-16.63,12A9.06,9.06,0,0,1,92.77,63.05Z" transform="translate(-5 -9.18)"/><path class="cls-8" d="M92.92,55c.47-4.57,3-8.39,5.71-12.12a71.69,71.69,0,0,1,10.13-10.8A125.16,125.16,0,0,1,127,18.27a3.34,3.34,0,0,1,3.63-.11,78,78,0,0,1,8.48,5.77c.43.3,1.1.94-.2,1.28-4.82,1.25-9.14,3.45-13.47,5.63a104.54,104.54,0,0,0-18.24,11.07,60,60,0,0,0-11.5,11.86c-.75,1-1.65,2-2.32,3.13C92.34,56.42,93.22,55.61,92.92,55Z" transform="translate(-5 -9.18)"/><path class="cls-9" d="M453.51,38.17a13,13,0,0,1,3.67-2.27c2.42-1.17,4.75-2.52,7.17-3.7,1.83-.89,2-.73,2.08,1.08,0,2.53,0,2.52,2.82,2.52,2.35,0,4.71,0,7.06,0,.4,0,1-.26,1.15.32a1.06,1.06,0,0,1-.57,1.3,4.56,4.56,0,0,1-2.27.54c-1.9,0-3.79,0-5.69,0-1.3,0-2,.36-1.94,1.67.07,4.21,0,8.42,0,12.63,0,2.39.93,3.17,3.67,3.38a12,12,0,0,0,5.64-1c.43-.18,1.14-.6,1.48,0,.21.4-.28.76-.75,1-4.78,2.92-10,3.45-15.56,2.35-2.5-.5-4.26-2.12-4.22-4.93.05-4.26,0-8.52,0-12.78,0-2.41.25-2-2.22-2.09C454.65,38.25,454.25,38.21,453.51,38.17Z" transform="translate(-5 -9.18)"/><path class="cls-6" d="M284.76,34.89c0,.85,0,1.55,0,2.25.08,1.32.74,1.72,2.13,1.21a33.39,33.39,0,0,0,3.69-1.55c3.49-1.75,7.15-1.33,11.05-.84-1.42,1.17-2.69,2.24-3.87,3.4-1,1-2.39.7-3.69.28a9.16,9.16,0,0,0-7.35,1,2.63,2.63,0,0,0-1.54,2.5c.05,3.55.08,7.1,0,10.65-.05,2,1.61,2.81,3.11,4.06H272.71c3-1.39,2.42-3.6,2.43-5.64,0-3.5-.07-7,0-10.5,0-1.83-.51-3.15-2.77-3.55a5.2,5.2,0,0,1-1.32-.7C275.72,36.7,280.16,35.89,284.76,34.89Z" transform="translate(-5 -9.18)"/><path class="cls-7" d="M241.49,37.92a24.18,24.18,0,0,1,3.95-2.19c2.57-.95,4.74-2.52,7.19-3.64,1.63-.75,1.78-.63,1.81,1,.05,2.75.05,2.75,3.1,2.75,2.19,0,4.37,0,6.55,0,.39,0,1-.23,1.06.42,0,.47.14,1-.54,1.32a4.36,4.36,0,0,1-2,.41h-6c-1.3,0-1.94.4-1.92,1.7.08,4.31.05,8.62,0,12.93,0,1.53.78,2.43,2.44,2.79a10.38,10.38,0,0,0,6-.33c.83-.32,1.66-.94,2.76-.46-1.87,2.38-4.73,3-7.61,3.58a21,21,0,0,1-9-.14C246.74,57.38,245,55.57,245,53c.09-4.31-.06-8.62.07-12.93,0-1.49-.45-2-2.09-1.8A1.88,1.88,0,0,1,241.49,37.92Z" transform="translate(-5 -9.18)"/><path class="cls-10" d="M395.75,57.9H381.19c0-.12-.11-.27-.08-.3,1.86-1.29,2-3,1.95-5-.12-3.4-.16-6.8,0-10.2a3.72,3.72,0,0,0-2.79-4.12,9.39,9.39,0,0,1-1.14-.63,27.89,27.89,0,0,1,4.9-.87,63.57,63.57,0,0,0,6.71-1.3c1.67-.43,1.94-.27,1.88,1.29-.09,2.74.46,2.37,2.73,1.34a22.2,22.2,0,0,1,10.5-2.34,6.81,6.81,0,0,1,1.36.11c.58.15,1.38.21,1.53.79s-.62.7-1.05,1a11.39,11.39,0,0,0-1.39,1.1,4.23,4.23,0,0,1-4.63,1,10.55,10.55,0,0,0-8.06,1,1.33,1.33,0,0,0-.77,1.39c0,4.16,0,8.32,0,12.48C392.81,56.36,394.25,56.91,395.75,57.9Z" transform="translate(-5 -9.18)"/><path class="cls-11" d="M237.5,58H222.91c2.5-1.82,1.84-4.14,1.88-6.31,0-3,0-6,0-9,.05-2.25.26-4.48-3.49-4.93l.4-.38c1.7-.23,3.41-.42,5.11-.68,2.09-.31,4.18-.61,6.24-1,1.44-.29,2-.09,2,1.4-.09,5.27,0,10.55,0,15.83C235.08,54.87,234.48,57.09,237.5,58Z" transform="translate(-5 -9.18)"/><path class="cls-6" d="M228.31,30.93a7.45,7.45,0,0,1-4.06-1.12,1.24,1.24,0,0,1-.34-2c1.47-2,7.63-2.19,9.4-.42,1.07,1.07.83,1.91-.77,2.69A9.15,9.15,0,0,1,228.31,30.93Z" transform="translate(-5 -9.18)"/><path class="cls-12" d="M92.92,55c.3.61-.58,1.42.44,1.9-.08.36-.22.76-.71.69s-.39-.48-.33-.75C92.47,56.21,91.82,55.38,92.92,55Z" transform="translate(-5 -9.18)"/></svg>